<?xml version="1.0" standalone="no"?>
<!DOCTYPE svg PUBLIC "-//W3C//DTD SVG 20010904//EN"
 "http://www.w3.org/TR/2001/REC-SVG-20010904/DTD/svg10.dtd">
<svg version="1.0" xmlns="http://www.w3.org/2000/svg"
 width="512" height="512" viewBox="0 0 512 512"
 preserveAspectRatio="xMidYMid meet">

<g transform="translate(0.000000,512.000000) scale(0.100000,-0.100000)"
fill="#000000" stroke="none">
<path d="M2440 4774 c-80 -16 -153 -39 -215 -67 -67 -31 -1579 -1079 -1688
-1171 -97 -81 -189 -224 -238 -371 l-24 -70 -3 -1028 c-2 -993 -2 -1031 17
-1111 73 -305 310 -538 613 -600 60 -12 141 -16 362 -16 l285 0 3 703 3 702
28 88 c58 186 135 318 261 443 136 135 287 222 474 271 82 22 119 25 242 25
124 0 159 -3 245 -26 187 -49 336 -135 475 -275 140 -141 230 -308 271 -506
17 -83 19 -145 19 -757 l0 -668 285 0 c308 0 382 8 498 55 185 76 352 237 433
421 14 31 34 94 45 140 19 80 19 118 17 1111 l-3 1028 -24 70 c-50 148 -144
293 -243 376 -108 90 -1619 1137 -1683 1166 -38 18 -97 39 -130 48 -59 17
-275 29 -325 19z" fill="grey"/>
<path d="M2459 2250 c-277 -44 -500 -247 -570 -518 -18 -71 -19 -116 -19 -734
l0 -658 690 0 690 0 0 658 c0 619 -1 663 -19 734 -63 244 -258 441 -496 502
-78 20 -205 27 -276 16z" fill="brown"/>
</g>
</svg>
